<svg width="41" height="40" viewBox="0 0 41 40" fill="none" xmlns="http://www.w3.org/2000/svg">
<path d="M0.5 20C0.5 8.95431 9.45431 0 20.5 0C31.5457 0 40.5 8.95431 40.5 20C40.5 31.0457 31.5457 40 20.5 40C9.45431 40 0.5 31.0457 0.5 20Z" fill="white"/>
<g clip-path="url(#clip0_2_5556)">
<path d="M10.5 11.6333C10.5 11.4654 10.5667 11.3043 10.6855 11.1855C10.8043 11.0667 10.9654 11 11.1334 11H13.0334C13.1747 11 13.3119 11.0473 13.4232 11.1343C13.5345 11.2213 13.6136 11.343 13.6478 11.4801L14.1608 13.5333H28.8672C28.9602 13.5334 29.0521 13.554 29.1362 13.5936C29.2204 13.6331 29.2948 13.6908 29.3541 13.7624C29.4135 13.8339 29.4564 13.9177 29.4797 14.0077C29.5031 14.0977 29.5063 14.1918 29.4892 14.2832L27.5891 24.4165C27.562 24.5617 27.4849 24.6927 27.3714 24.7871C27.2578 24.8815 27.1148 24.9332 26.9672 24.9333H15.5668C15.4192 24.9332 15.2762 24.8815 15.1626 24.7871C15.0491 24.6927 14.972 24.5617 14.9449 24.4165L13.0461 14.3022L12.5394 12.2667H11.1334C10.9654 12.2667 10.8043 12.1999 10.6855 12.0812C10.5667 11.9624 10.5 11.8013 10.5 11.6333ZM14.4293 14.8L16.0925 23.6667H26.4415L28.1047 14.8H14.4293ZM16.8335 24.9333C16.1616 24.9333 15.5172 25.2002 15.0421 25.6753C14.567 26.1504 14.3001 26.7948 14.3001 27.4667C14.3001 28.1385 14.567 28.7829 15.0421 29.258C15.5172 29.7331 16.1616 30 16.8335 30C17.5054 30 18.1498 29.7331 18.6249 29.258C19.1 28.7829 19.3669 28.1385 19.3669 27.4667C19.3669 26.7948 19.1 26.1504 18.6249 25.6753C18.1498 25.2002 17.5054 24.9333 16.8335 24.9333ZM25.7005 24.9333C25.0286 24.9333 24.3842 25.2002 23.9091 25.6753C23.434 26.1504 23.1671 26.7948 23.1671 27.4667C23.1671 28.1385 23.434 28.7829 23.9091 29.258C24.3842 29.7331 25.0286 30 25.7005 30C26.3724 30 27.0168 29.7331 27.4919 29.258C27.967 28.7829 28.2339 28.1385 28.2339 27.4667C28.2339 26.7948 27.967 26.1504 27.4919 25.6753C27.0168 25.2002 26.3724 24.9333 25.7005 24.9333ZM16.8335 26.2C17.1695 26.2 17.4917 26.3335 17.7292 26.571C17.9668 26.8085 18.1002 27.1307 18.1002 27.4667C18.1002 27.8026 17.9668 28.1248 17.7292 28.3623C17.4917 28.5999 17.1695 28.7333 16.8335 28.7333C16.4976 28.7333 16.1754 28.5999 15.9378 28.3623C15.7003 28.1248 15.5668 27.8026 15.5668 27.4667C15.5668 27.1307 15.7003 26.8085 15.9378 26.571C16.1754 26.3335 16.4976 26.2 16.8335 26.2ZM25.7005 26.2C26.0364 26.2 26.3586 26.3335 26.5962 26.571C26.8337 26.8085 26.9672 27.1307 26.9672 27.4667C26.9672 27.8026 26.8337 28.1248 26.5962 28.3623C26.3586 28.5999 26.0364 28.7333 25.7005 28.7333C25.3645 28.7333 25.0423 28.5999 24.8048 28.3623C24.5672 28.1248 24.4338 27.8026 24.4338 27.4667C24.4338 27.1307 24.5672 26.8085 24.8048 26.571C25.0423 26.3335 25.3645 26.2 25.7005 26.2Z" fill="#252B42"/>
</g>
<defs>
<clipPath id="clip0_2_5556">
<rect width="20" height="20" fill="white" transform="translate(10.5 10)"/>
</clipPath>
</defs>
</svg>
