<svg width="73" height="72" viewBox="0 0 73 72" fill="none" xmlns="http://www.w3.org/2000/svg">
<path d="M0.5 36C0.5 16.1178 16.6178 0 36.5 0C56.3823 0 72.5 16.1178 72.5 36C72.5 55.8823 56.3823 72 36.5 72C16.6178 72 0.5 55.8823 0.5 36Z" fill="#B6D7FF"/>
<g clip-path="url(#clip0_2_5444)">
<path d="M26.349 53.9998H45.6523C46.8009 53.9998 47.7572 53.1212 47.7572 52.0416V28.6283C47.7572 27.5484 46.8009 26.6606 45.6523 26.6606H42.4702V28.4484C42.4748 28.7587 42.23 29.0155 41.92 29.0259H30.0436C29.7273 29.0183 29.4719 28.7647 29.4615 28.4484V26.6606H26.349C25.2004 26.6606 24.2441 27.5484 24.2441 28.6283V52.0416C24.2441 53.1212 25.2004 53.9998 26.349 53.9998ZM30.6441 36.0519C30.6441 35.7446 30.8933 35.4954 31.2007 35.4954H34.0528V32.6433C34.0528 32.3359 34.302 32.0867 34.6094 32.0867H37.392C37.6993 32.0867 37.9485 32.3359 37.9485 32.6433V35.4954H40.8007C41.108 35.4954 41.3572 35.7446 41.3572 36.0519V38.8346C41.3572 39.1419 41.108 39.3911 40.8007 39.3911H37.9485V42.2433C37.9485 42.5506 37.6993 42.7998 37.392 42.7998H34.6094C34.302 42.7998 34.0528 42.5506 34.0528 42.2433V39.3911H31.2007C30.8933 39.3911 30.6441 39.1419 30.6441 38.8346V36.0519ZM30.8708 45.6519H41.1306C41.4382 45.6519 41.6871 45.9011 41.6871 46.2085C41.6871 46.5158 41.4382 46.765 41.1306 46.765H30.8708C30.5632 46.765 30.3142 46.5158 30.3142 46.2085C30.3142 45.9011 30.5632 45.6519 30.8708 45.6519ZM28.7838 48.4346H43.2175C43.5251 48.4346 43.774 48.6837 43.774 48.9911C43.774 49.2984 43.5251 49.5476 43.2175 49.5476H28.7838C28.4762 49.5476 28.2273 49.2984 28.2273 48.9911C28.2273 48.6837 28.4762 48.4346 28.7838 48.4346Z" fill="white"/>
<path d="M41.3568 24.1565H38.7525C38.4905 24.1563 38.2639 23.9734 38.2087 23.7171C37.9935 22.7226 37.0489 22 35.9625 22H35.9557C34.8984 21.9989 33.9748 22.7144 33.7117 23.7383C33.6484 23.9842 33.4267 24.1563 33.1726 24.1565H30.5742V27.913H41.3568V24.1565Z" fill="white"/>
<path d="M35.1646 38.835V41.6872H36.8341V38.835C36.8341 38.5276 37.0833 38.2785 37.3906 38.2785H40.2428V36.6089H37.3906C37.0833 36.6089 36.8341 36.3597 36.8341 36.0524V33.2002H35.1646V36.0524C35.1646 36.3597 34.9154 36.6089 34.608 36.6089H31.7559V38.2785H34.608C34.9154 38.2785 35.1646 38.5276 35.1646 38.835Z" fill="white"/>
</g>
<defs>
<clipPath id="clip0_2_5444">
<rect width="32" height="32" fill="white" transform="translate(20 22)"/>
</clipPath>
</defs>
</svg>
