<svg width="73" height="72" viewBox="0 0 73 72" fill="none" xmlns="http://www.w3.org/2000/svg">
<path d="M0.5 36C0.5 16.1178 16.6178 0 36.5 0C56.3823 0 72.5 16.1178 72.5 36C72.5 55.8823 56.3823 72 36.5 72C16.6178 72 0.5 55.8823 0.5 36Z" fill="#B6D7FF"/>
<g clip-path="url(#clip0_2_5464)">
<g clip-path="url(#clip1_2_5464)">
<g clip-path="url(#clip2_2_5464)">
<path d="M30.6714 38.3351C31.0654 38.2535 31.4771 38.0748 31.8654 37.7944C32.982 36.9867 33.4776 35.6605 32.9712 34.8307C32.4206 33.9281 30.9144 33.9888 29.757 35.016C28.6502 35.9717 28.4141 36.9702 28.4141 38.0196C28.4141 38.7611 28.6512 40.0851 30.1 41.235C30.7841 40.7064 31.5995 40.2716 32.5252 39.9572L32.5375 39.9527C31.8262 39.6563 30.8991 39.0713 30.6714 38.3351ZM30.4928 35.7829C30.4928 35.4729 30.7399 35.2236 31.0445 35.2236C31.3489 35.2236 31.5962 35.474 31.5962 35.7841C31.5962 36.0941 31.3489 36.3435 31.0445 36.3435C30.7399 36.3435 30.4928 36.093 30.4928 35.7829Z" fill="white"/>
</g>
</g>
<g clip-path="url(#clip3_2_5464)">
<g clip-path="url(#clip4_2_5464)">
<path d="M43.6074 38.0203C43.6041 36.9698 43.3691 35.9713 42.2613 35.0157C41.1048 33.9895 39.5976 33.9266 39.047 34.8304C38.5416 35.6601 39.0359 36.9864 40.1525 37.7941C40.541 38.0744 40.9526 38.2531 41.3465 38.3347C41.2097 38.7772 40.7937 39.2274 40.1593 39.607C39.2869 40.1276 38.8157 40.192 33.2341 42.0455C31.1686 42.7473 29.9395 44.1419 29.9395 45.7761C29.9395 46.9402 30.5341 47.8384 31.3605 48.4961C31.8803 47.9609 32.5292 47.4964 33.2872 47.1245C32.4144 46.6832 32.1451 46.3488 32.1451 45.7761C32.1451 44.8309 34.0344 44.2905 34.906 44.003V46.3952L37.1128 45.4109V44.0041C37.9858 44.2932 39.8702 44.8329 39.8702 45.7761C39.8702 47.3454 35.3767 48.2708 33.4649 49.5895C32.537 50.2328 32.038 51.0505 32.038 52.0115C32.038 52.5632 32.1021 53.2474 33.0709 53.9271C33.3456 54.1465 33.7272 53.826 33.5488 53.5176C32.9087 52.2366 33.5884 51.5966 34.9081 51.0427V52.8942C34.9081 53.5033 35.4025 53.9976 36.0115 53.9976C36.6206 53.9976 37.115 53.5033 37.115 52.8942V51.0438C38.3827 51.5756 39.1806 52.327 38.471 53.5176C38.2952 53.82 38.6697 54.1492 38.9477 53.9271C39.8856 53.2164 39.9596 52.6073 39.9596 52.0259C39.9596 51.1311 39.4697 50.2627 38.5406 49.5973C40.4186 48.9187 42.0803 47.7766 42.0803 45.7783C42.0803 44.398 41.2032 43.1886 39.6871 42.4229C40.3953 42.168 40.7517 41.997 41.2251 41.7145C43.2985 40.4753 43.6074 38.8677 43.6074 38.0203ZM40.9748 36.3431C40.6701 36.3431 40.4231 36.0926 40.4231 35.7825C40.4231 35.4725 40.6701 35.222 40.9748 35.222C41.2792 35.222 41.5265 35.4725 41.5265 35.7825C41.5265 36.0926 41.2792 36.3431 40.9748 36.3431Z" fill="white"/>
</g>
</g>
<g clip-path="url(#clip5_2_5464)">
<g clip-path="url(#clip6_2_5464)">
<path d="M51.4476 24.209H43.8908C42.4084 24.209 41.296 24.8643 40.339 25.8213C39.2993 26.861 38.7587 29.1722 37.1032 29.1722V26.1076C37.7601 25.7253 38.2066 25.0217 38.2066 24.2068C38.2066 22.988 37.2186 22 35.9998 22C34.7809 22 33.793 22.988 33.793 24.2068C33.793 25.0216 34.2394 25.7253 34.8964 26.1076V39.2579C35.5774 39.0406 36.3248 38.8012 37.1032 38.5513V33.0242C37.5819 32.784 37.9682 32.3957 38.2051 31.9151C38.5889 32.571 39.3185 33.0363 40.1318 33.0363C40.9567 33.0363 41.6673 32.5783 42.0459 31.908C43.3386 33.2007 45.7413 33.2256 47.0339 31.933L45.1588 30.0579L46.019 30.4142C47.708 31.1138 49.6444 30.3117 50.3441 28.6227L47.6803 27.5193C50.2609 27.5192 51.4476 25.8999 51.4476 24.209Z" fill="white"/>
</g>
</g>
<g clip-path="url(#clip7_2_5464)">
<g clip-path="url(#clip8_2_5464)">
<path d="M31.6613 25.8213C30.7043 24.8643 29.5919 24.209 28.1095 24.209H20.5527C20.5527 25.8998 21.7394 27.5192 24.32 27.5192L21.6561 28.6226C22.3558 30.3117 24.2923 31.1137 25.9813 30.4142L26.8415 30.0578L24.9664 31.9329C26.259 33.2257 28.6617 33.2008 29.9544 31.908C30.333 32.5783 31.0436 33.0363 31.8685 33.0363C31.8766 33.0363 31.8848 33.0362 31.8929 33.0361C32.9711 33.0239 33.7952 32.05 33.7952 30.9718V28.7519C32.9255 28.0383 32.4274 26.5874 31.6613 25.8213Z" fill="white"/>
</g>
</g>
</g>
<defs>
<clipPath id="clip0_2_5464">
<rect width="32" height="32" fill="white" transform="translate(20 22)"/>
</clipPath>
<clipPath id="clip1_2_5464">
<rect width="4.75568" height="7.03818" fill="white" transform="translate(28.4141 34.1968)"/>
</clipPath>
<clipPath id="clip2_2_5464">
<rect width="4.75568" height="7.03818" fill="white" transform="translate(28.4141 34.1968)"/>
</clipPath>
<clipPath id="clip3_2_5464">
<rect width="13.668" height="19.8036" fill="white" transform="translate(29.9395 34.1963)"/>
</clipPath>
<clipPath id="clip4_2_5464">
<rect width="13.668" height="19.8036" fill="white" transform="translate(29.9395 34.1963)"/>
</clipPath>
<clipPath id="clip5_2_5464">
<rect width="17.6546" height="17.2579" fill="white" transform="translate(33.793 22)"/>
</clipPath>
<clipPath id="clip6_2_5464">
<rect width="17.6546" height="17.2579" fill="white" transform="translate(33.793 22)"/>
</clipPath>
<clipPath id="clip7_2_5464">
<rect width="13.2425" height="8.8273" fill="white" transform="translate(20.5527 24.209)"/>
</clipPath>
<clipPath id="clip8_2_5464">
<rect width="13.2425" height="8.8273" fill="white" transform="translate(20.5527 24.209)"/>
</clipPath>
</defs>
</svg>
