<svg width="72" height="72" viewBox="0 0 72 72" fill="none" xmlns="http://www.w3.org/2000/svg">
<path d="M0.5 36C0.5 16.1177 16.6177 0 36.5 0V0C56.3823 0 72.5 16.1177 72.5 36V36C72.5 55.8823 56.3823 72 36.5 72V72C16.6177 72 0.5 55.8823 0.5 36V36Z" fill="#B6D7FF"/>
<g clip-path="url(#clip0_2_5433)">
<g clip-path="url(#clip1_2_5433)">
<path d="M35.9909 26.218C29.0159 20.1173 20.1472 25.4776 20.0018 32.7442C19.9647 34.5961 20.4993 36.4 21.5634 38.0631H28.4607L29.6874 36.0184C30.0437 35.4247 30.9057 35.4056 31.2821 35.9974L33.8705 40.0648L37.6435 32.0997C37.9726 31.4047 38.9532 31.3827 39.3161 32.0566L42.5503 38.0631H50.4184C56.2468 28.9538 44.7279 18.5764 35.9909 26.218V26.218Z" fill="white"/>
<path d="M41.1656 39.4448L38.5448 34.5776L34.8387 42.4014C34.5234 43.0671 33.5961 43.1249 33.2007 42.5034L30.5152 38.2835L29.7957 39.4827C29.6263 39.7651 29.3212 39.9378 28.9919 39.9378H23.0469C23.2332 40.1328 22.24 39.1416 35.3302 52.164C35.6958 52.5278 36.2868 52.5278 36.6525 52.164C49.5412 39.342 48.7498 40.1325 48.9358 39.9378H41.9909C41.646 39.9379 41.329 39.7485 41.1656 39.4448V39.4448Z" fill="white"/>
</g>
</g>
<defs>
<clipPath id="clip0_2_5433">
<rect width="32" height="32" fill="white" transform="translate(20 22)"/>
</clipPath>
<clipPath id="clip1_2_5433">
<rect width="32" height="28.8744" fill="white" transform="translate(20 23.5625)"/>
</clipPath>
</defs>
</svg>
