<svg width="41" height="40" viewBox="0 0 41 40" fill="none" xmlns="http://www.w3.org/2000/svg">
<path d="M0.5 20C0.5 8.95431 9.45431 0 20.5 0C31.5457 0 40.5 8.95431 40.5 20C40.5 31.0457 31.5457 40 20.5 40C9.45431 40 0.5 31.0457 0.5 20Z" fill="white"/>
<path d="M20.5002 15.9532L19.1358 14.5566L19.1352 14.556C18.7873 14.2018 18.3723 13.9204 17.9144 13.7283C17.4566 13.5362 16.965 13.4372 16.4685 13.4372C15.972 13.4372 15.4804 13.5362 15.0225 13.7283C14.5647 13.9203 14.1498 14.2017 13.8019 14.5559C13.0879 15.2808 12.6877 16.2575 12.6877 17.275C12.6877 18.2926 13.088 19.2693 13.8021 19.9943L13.8024 19.9946L20.2774 26.5508L20.4997 26.776L20.7221 26.5508L27.1971 19.9946L27.1974 19.9943C27.9115 19.2693 28.3117 18.2926 28.3117 17.275C28.3117 16.2575 27.9116 15.2809 27.1976 14.5559C26.8499 14.2015 26.435 13.92 25.9771 13.7279C25.5193 13.5359 25.0278 13.4372 24.5314 13.4375C24.5312 13.4375 24.531 13.4375 24.5307 13.4375L24.531 13.75M20.5002 15.9532L21.8571 14.5695L21.8579 14.5687L22.081 14.7875M20.5002 15.9532L21.8563 14.5704M20.5002 15.9532L21.8563 14.5704M24.531 13.75C24.0738 13.7493 23.6213 13.8409 23.2003 14.0192C22.7793 14.1974 22.3986 14.4587 22.081 14.7875M24.531 13.75C24.986 13.7496 25.4366 13.8401 25.8562 14.0161C26.2758 14.1921 26.6561 14.4501 26.9747 14.775L24.531 13.75ZM22.081 14.7875L21.8563 14.5704M22.081 14.7875L21.8563 14.5704M24.5307 12.8125L24.5309 12.8125C25.1108 12.8127 25.6849 12.9283 26.2196 13.1526C26.7544 13.3769 27.2391 13.7054 27.6456 14.119C28.4745 14.9629 28.9389 16.0984 28.9389 17.2813C28.9389 18.4639 28.4746 19.5993 27.646 20.4431C27.6458 20.4432 27.6457 20.4434 27.6456 20.4435L20.4997 27.6802L13.3539 20.4435C13.3538 20.4434 13.3537 20.4433 13.3536 20.4432C12.5249 19.5994 12.0605 18.464 12.0605 17.2813C12.0605 16.0985 12.5249 14.9629 13.3538 14.1191C13.7604 13.7058 14.2452 13.3774 14.7799 13.1533C15.3147 12.9292 15.8887 12.8138 16.4685 12.8138C17.0483 12.8138 17.6223 12.9292 18.1571 13.1533C18.6918 13.3774 19.1766 13.7058 19.5832 14.1191L19.584 14.12L20.2778 14.82L20.4997 15.0439L20.7217 14.82L21.4155 14.12L21.4166 14.1188C21.8226 13.7047 22.3072 13.3759 22.8419 13.1516C23.3767 12.9273 23.9508 12.812 24.5307 12.8125Z" fill="#BDBDBD" stroke="#252B42" stroke-width="0.625"/>
</svg>
