<svg width="53" height="51" viewBox="0 0 53 51" fill="none" xmlns="http://www.w3.org/2000/svg">
<path d="M0 25.5244C0 11.7173 11.1929 0.524414 25 0.524414H28C41.8071 0.524414 53 11.7173 53 25.5244C53 39.3315 41.8071 50.5244 28 50.5244H25C11.1929 50.5244 0 39.3315 0 25.5244Z" fill="#ECECEC"/>
<path d="M19.872 23.1724C19.52 23.8551 19.344 24.7564 19.344 25.8764C19.344 26.9964 19.52 27.8977 19.872 28.5804C20.224 29.2631 20.7733 29.6044 21.52 29.6044C22.2667 29.6044 22.816 29.2631 23.168 28.5804C23.52 27.8977 23.696 26.9964 23.696 25.8764C23.696 24.7564 23.52 23.8551 23.168 23.1724C22.816 22.4897 22.2667 22.1484 21.52 22.1484C20.7733 22.1484 20.224 22.4897 19.872 23.1724ZM21.52 31.6524C19.9733 31.6524 18.816 31.1297 18.048 30.0844C17.28 29.0284 16.896 27.6257 16.896 25.8764C16.896 24.1164 17.28 22.7137 18.048 21.6684C18.816 20.6124 19.9733 20.0844 21.52 20.0844C23.0667 20.0844 24.224 20.6124 24.992 21.6684C25.76 22.7137 26.144 24.1164 26.144 25.8764C26.144 27.6257 25.76 29.0284 24.992 30.0844C24.224 31.1297 23.0667 31.6524 21.52 31.6524ZM31.3549 26.3084C32.0162 25.6364 32.4855 25.1031 32.7629 24.7084C33.0509 24.3031 33.1949 23.9137 33.1949 23.5404C33.1949 23.1671 33.0722 22.8577 32.8269 22.6124C32.5815 22.3564 32.2669 22.2284 31.8829 22.2284C31.1789 22.2284 30.5122 22.7297 29.8829 23.7324L27.8829 22.5484C28.4055 21.7377 28.9762 21.1244 29.5949 20.7084C30.2242 20.2924 31.0189 20.0844 31.9789 20.0844C32.9495 20.0844 33.7975 20.3937 34.5229 21.0124C35.2589 21.6204 35.6269 22.4524 35.6269 23.5084C35.6269 24.0844 35.4775 24.6391 35.1789 25.1724C34.8909 25.6951 34.3522 26.3671 33.5629 27.1884L31.5469 29.2844H35.9629V31.5244H28.0749V29.6684L31.3549 26.3084Z" fill="#E74040"/>
</svg>
