<svg width="50" height="51" viewBox="0 0 50 51" fill="none" xmlns="http://www.w3.org/2000/svg">
<path d="M0 25.5244C0 11.7173 11.1929 0.524414 25 0.524414V0.524414C38.8071 0.524414 50 11.7173 50 25.5244V25.5244C50 39.3315 38.8071 50.5244 25 50.5244V50.5244C11.1929 50.5244 0 39.3315 0 25.5244V25.5244Z" fill="#ECECEC"/>
<path d="M21.424 31.7164C20.496 31.7164 19.6693 31.4871 18.944 31.0284C18.2187 30.5697 17.648 29.9084 17.232 29.0444C16.8267 28.1697 16.624 27.1297 16.624 25.9244C16.624 24.7191 16.8267 23.6844 17.232 22.8204C17.648 21.9457 18.2187 21.2791 18.944 20.8204C19.6693 20.3617 20.496 20.1324 21.424 20.1324C22.352 20.1324 23.1787 20.3617 23.904 20.8204C24.6293 21.2791 25.1947 21.9457 25.6 22.8204C26.016 23.6844 26.224 24.7191 26.224 25.9244C26.224 27.1297 26.016 28.1697 25.6 29.0444C25.1947 29.9084 24.6293 30.5697 23.904 31.0284C23.1787 31.4871 22.352 31.7164 21.424 31.7164ZM21.424 29.5244C22.1067 29.5244 22.64 29.2311 23.024 28.6444C23.4187 28.0577 23.616 27.1511 23.616 25.9244C23.616 24.6977 23.4187 23.7911 23.024 23.2044C22.64 22.6177 22.1067 22.3244 21.424 22.3244C20.752 22.3244 20.2187 22.6177 19.824 23.2044C19.44 23.7911 19.248 24.6977 19.248 25.9244C19.248 27.1511 19.44 28.0577 19.824 28.6444C20.2187 29.2311 20.752 29.5244 21.424 29.5244ZM31.8096 20.3244V31.5244H29.2176V22.4044H26.9776V20.3244H31.8096Z" fill="#E74040"/>
</svg>
