<svg width="53" height="51" viewBox="0 0 53 51" fill="none" xmlns="http://www.w3.org/2000/svg">
<path d="M0 25.5244C0 11.7173 11.1929 0.524414 25 0.524414H28C41.8071 0.524414 53 11.7173 53 25.5244C53 39.3315 41.8071 50.5244 28 50.5244H25C11.1929 50.5244 0 39.3315 0 25.5244Z" fill="#ECECEC"/>
<path d="M19.872 23.1724C19.52 23.8551 19.344 24.7564 19.344 25.8764C19.344 26.9964 19.52 27.8977 19.872 28.5804C20.224 29.2631 20.7733 29.6044 21.52 29.6044C22.2667 29.6044 22.816 29.2631 23.168 28.5804C23.52 27.8977 23.696 26.9964 23.696 25.8764C23.696 24.7564 23.52 23.8551 23.168 23.1724C22.816 22.4897 22.2667 22.1484 21.52 22.1484C20.7733 22.1484 20.224 22.4897 19.872 23.1724ZM21.52 31.6524C19.9733 31.6524 18.816 31.1297 18.048 30.0844C17.28 29.0284 16.896 27.6257 16.896 25.8764C16.896 24.1164 17.28 22.7137 18.048 21.6684C18.816 20.6124 19.9733 20.0844 21.52 20.0844C23.0667 20.0844 24.224 20.6124 24.992 21.6684C25.76 22.7137 26.144 24.1164 26.144 25.8764C26.144 27.6257 25.76 29.0284 24.992 30.0844C24.224 31.1297 23.0667 31.6524 21.52 31.6524ZM28.3469 22.4684V20.3404H35.1949V22.0684L32.9069 24.6764C33.8029 24.8257 34.4962 25.2044 34.9869 25.8124C35.4775 26.4097 35.7229 27.1031 35.7229 27.8924C35.7229 29.0657 35.3229 29.9884 34.5229 30.6604C33.7335 31.3217 32.7202 31.6524 31.4829 31.6524C30.2455 31.6524 28.9922 31.2151 27.7229 30.3404L28.7469 28.3564C29.8029 29.1031 30.7469 29.4764 31.5789 29.4764C32.0802 29.4764 32.4909 29.3537 32.8109 29.1084C33.1415 28.8631 33.3069 28.5111 33.3069 28.0524C33.3069 27.5831 33.1202 27.2151 32.7469 26.9484C32.3735 26.6711 31.8562 26.5324 31.1949 26.5324C30.8429 26.5324 30.3469 26.6337 29.7069 26.8364V24.9964L31.8509 22.4684H28.3469Z" fill="#E74040"/>
</svg>
