<svg width="60" height="32" viewBox="0 0 60 32" fill="none" xmlns="http://www.w3.org/2000/svg">
<g filter="url(#filter0_d_2_5563)">
<path d="M4.5 5C4.5 3.34315 5.84315 2 7.5 2H52.5C54.1569 2 55.5 3.34315 55.5 5V23C55.5 24.6569 54.1569 26 52.5 26H7.5C5.84315 26 4.5 24.6569 4.5 23V5Z" fill="#E74040"/>
<path d="M19.0628 10.908C18.6988 10.908 18.4095 10.9967 18.1948 11.174C17.9895 11.342 17.8868 11.5707 17.8868 11.86C17.8868 12.14 18.0128 12.364 18.2648 12.532C18.5261 12.7 19.1188 12.9007 20.0428 13.134C20.9761 13.358 21.6995 13.6987 22.2128 14.156C22.7261 14.6133 22.9828 15.2807 22.9828 16.158C22.9828 17.0353 22.6515 17.7493 21.9888 18.3C21.3355 18.8413 20.4721 19.112 19.3988 19.112C17.8495 19.112 16.4541 18.538 15.2128 17.39L16.5148 15.794C17.5695 16.718 18.5448 17.18 19.4408 17.18C19.8421 17.18 20.1548 17.096 20.3788 16.928C20.6121 16.7507 20.7288 16.5173 20.7288 16.228C20.7288 15.9293 20.6075 15.696 20.3648 15.528C20.1221 15.3507 19.6415 15.1733 18.9228 14.996C17.7841 14.7253 16.9488 14.3753 16.4168 13.946C15.8941 13.5073 15.6328 12.826 15.6328 11.902C15.6328 10.9687 15.9641 10.25 16.6268 9.746C17.2988 9.242 18.1341 8.99 19.1328 8.99C19.7861 8.99 20.4395 9.102 21.0928 9.326C21.7461 9.55 22.3155 9.86733 22.8008 10.278L21.6948 11.874C20.8455 11.23 19.9681 10.908 19.0628 10.908ZM31.2285 19H29.2545V18.09C28.7132 18.7713 28.0412 19.112 27.2385 19.112C26.4452 19.112 25.7779 18.8833 25.2365 18.426C24.6952 17.9593 24.4245 17.3433 24.4245 16.578C24.4245 15.8033 24.7045 15.2247 25.2645 14.842C25.8245 14.4593 26.5899 14.268 27.5605 14.268H29.1285V14.226C29.1285 13.4233 28.7039 13.022 27.8545 13.022C27.4905 13.022 27.1032 13.0967 26.6925 13.246C26.2912 13.386 25.9505 13.5633 25.6705 13.778L24.7325 12.42C25.7219 11.7013 26.8512 11.342 28.1205 11.342C29.0352 11.342 29.7819 11.5707 30.3605 12.028C30.9392 12.4853 31.2285 13.2087 31.2285 14.198V19ZM29.1145 16.13V15.766H27.7985C26.9585 15.766 26.5385 16.0273 26.5385 16.55C26.5385 16.8207 26.6365 17.0307 26.8325 17.18C27.0379 17.32 27.3272 17.39 27.7005 17.39C28.0739 17.39 28.4005 17.278 28.6805 17.054C28.9699 16.8207 29.1145 16.5127 29.1145 16.13ZM35.443 19H33.343V8.612H35.443V19ZM44.1549 17.908C43.3056 18.7107 42.3069 19.112 41.1589 19.112C40.0202 19.112 39.0776 18.762 38.3309 18.062C37.5842 17.3527 37.2109 16.4053 37.2109 15.22C37.2109 14.0347 37.5889 13.092 38.3449 12.392C39.1102 11.692 40.0109 11.342 41.0469 11.342C42.0829 11.342 42.9602 11.6547 43.6789 12.28C44.4069 12.9053 44.7709 13.764 44.7709 14.856V15.976H39.2829C39.3482 16.3867 39.5629 16.7227 39.9269 16.984C40.2909 17.2453 40.7016 17.376 41.1589 17.376C41.8962 17.376 42.5029 17.1287 42.9789 16.634L44.1549 17.908ZM42.6429 14.478C42.5962 14.03 42.4282 13.6847 42.1389 13.442C41.8496 13.1993 41.4949 13.078 41.0749 13.078C40.6642 13.078 40.2862 13.204 39.9409 13.456C39.5956 13.708 39.3949 14.0487 39.3389 14.478H42.6429Z" fill="white"/>
</g>
<defs>
<filter id="filter0_d_2_5563" x="0.5" y="0" width="59" height="32" filterUnits="userSpaceOnUse" color-interpolation-filters="sRGB">
<feFlood flood-opacity="0" result="BackgroundImageFix"/>
<feColorMatrix in="SourceAlpha" type="matrix" values="0 0 0 0 0 0 0 0 0 0 0 0 0 0 0 0 0 0 127 0" result="hardAlpha"/>
<feOffset dy="2"/>
<feGaussianBlur stdDeviation="2"/>
<feColorMatrix type="matrix" values="0 0 0 0 0 0 0 0 0 0 0 0 0 0 0 0 0 0 0.1 0"/>
<feBlend mode="normal" in2="BackgroundImageFix" result="effect1_dropShadow_2_5563"/>
<feBlend mode="normal" in="SourceGraphic" in2="effect1_dropShadow_2_5563" result="shape"/>
</filter>
</defs>
</svg>
