<svg width="41" height="40" viewBox="0 0 41 40" fill="none" xmlns="http://www.w3.org/2000/svg">
<path d="M0.5 20C0.5 8.95431 9.45431 0 20.5 0C31.5457 0 40.5 8.95431 40.5 20C40.5 31.0457 31.5457 40 20.5 40C9.45431 40 0.5 31.0457 0.5 20Z" fill="white"/>
<path d="M23 20C23 20.663 22.7366 21.2989 22.2678 21.7678C21.7989 22.2366 21.163 22.5 20.5 22.5C19.837 22.5 19.2011 22.2366 18.7322 21.7678C18.2634 21.2989 18 20.663 18 20C18 19.337 18.2634 18.7011 18.7322 18.2322C19.2011 17.7634 19.837 17.5 20.5 17.5C21.163 17.5 21.7989 17.7634 22.2678 18.2322C22.7366 18.7011 23 19.337 23 20Z" fill="black"/>
<path d="M12.5 20C12.5 20 15.5 14.5 20.5 14.5C25.5 14.5 28.5 20 28.5 20C28.5 20 25.5 25.5 20.5 25.5C15.5 25.5 12.5 20 12.5 20ZM20.5 23.5C21.4283 23.5 22.3185 23.1313 22.9749 22.4749C23.6313 21.8185 24 20.9283 24 20C24 19.0717 23.6313 18.1815 22.9749 17.5251C22.3185 16.8687 21.4283 16.5 20.5 16.5C19.5717 16.5 18.6815 16.8687 18.0251 17.5251C17.3687 18.1815 17 19.0717 17 20C17 20.9283 17.3687 21.8185 18.0251 22.4749C18.6815 23.1313 19.5717 23.5 20.5 23.5Z" fill="black"/>
</svg>
